# xmcd
#
# Track frame offsets: 
#        150
#        13690
#        26587
#        43607
#        61270
#        79590
#        91365
#        110415
#        124787
#        143030
#        162495
#        174337
#        192612
#        209600
#        223272
#        235955
#        255195
#        274582
#        289160
#        305710
#
# Disc length: 4282 seconds
#
# Revision: 0
# Processed by: cddbd v1.5PL3 Copyright (c) Steve Scherf et al.
# Submitted via: ExactAudioCopy v0.95a4
#
DISCID=2410b814
DTITLE=Rob Mashburn - The Picker's Best
DYEAR=1997
DGENRE=Bluegrass
TTITLE0=Sleepy Eyed John
TTITLE1=Mockingbird Hill
TTITLE2=Maggie
TTITLE3=Boney Maroney
TTITLE4=My Wildwood Flower
TTITLE5=Pizen Pete
TTITLE6=The Picker
TTITLE7=One Horse Town
TTITLE8=Mona Lisa
TTITLE9=Carolina Mountains
TTITLE10=Loafers  Glory
TTITLE11=November Fields
TTITLE12=Summertime
TTITLE13=There Stands The Glass
TTITLE14=Hainted House
TTITLE15=Misty Mountain Morning
TTITLE16=The River
TTITLE17=Daisey A Day
TTITLE18=Country Bumpkin
TTITLE19=Happy Tune
EXTD=
EXTT0=
EXTT1=
EXTT2=
EXTT3=
EXTT4=
EXTT5=
EXTT6=
EXTT7=
EXTT8=
EXTT9=
EXTT10=
EXTT11=
EXTT12=
EXTT13=
EXTT14=
EXTT15=
EXTT16=
EXTT17=
EXTT18=
EXTT19=
PLAYORDER=
